<?xml version="1.0" encoding="UTF-8" standalone="no"?>
<svg
   width="42.330002"
   height="42.330002"
   viewBox="0 0 42.330003 42.330003"
   version="1.1"
   id="svg66"
   sodipodi:docname="brand.svg"
   inkscape:export-filename="/Users/marina/Desktop/brand.png"
   inkscape:export-xdpi="96"
   inkscape:export-ydpi="96"
   inkscape:version="1.1.1 (c3084ef, 2021-09-22)"
   xmlns:inkscape="http://www.inkscape.org/namespaces/inkscape"
   xmlns:sodipodi="http://sodipodi.sourceforge.net/DTD/sodipodi-0.dtd"
   xmlns="http://www.w3.org/2000/svg"
   xmlns:svg="http://www.w3.org/2000/svg">
  <sodipodi:namedview
     id="namedview68"
     pagecolor="#ffffff"
     bordercolor="#666666"
     borderopacity="1.0"
     inkscape:pageshadow="2"
     inkscape:pageopacity="0.0"
     inkscape:pagecheckerboard="0"
     showgrid="false"
     inkscape:zoom="8.0247677"
     inkscape:cx="61.995564"
     inkscape:cy="30.7174"
     inkscape:window-width="1846"
     inkscape:window-height="1059"
     inkscape:window-x="0"
     inkscape:window-y="25"
     inkscape:window-maximized="0"
     inkscape:current-layer="svg66"
     height="38.53px"
     width="42.33px" />
  <defs
     id="defs4">
    <style
       id="style2">.a{fill:#fff;stroke:#fff;stroke-miterlimit:10;stroke-width:0.3px;}.b{fill:#3895ae;}.c{fill:#56bfc6;}.d{fill:#2e7691;}</style>
  </defs>
  <g
     id="g62"
     inkscape:export-filename="/Users/marina/Desktop/brand.png"
     inkscape:export-xdpi="96"
     inkscape:export-ydpi="96"
     transform="translate(0.20214976,1.8193478)">
    <path
       class="b"
       d="m 183.017,183.447 c 1.2,4.221 1.967,5.922 0.949,5.924 -1.018,0.002 -1.578,-1.733 -4.249,-5.914 -2.111,-3.306 -3.054,-5.384 -0.687,-5.391 2.367,-0.007 3.119,2.316 3.987,5.381 z"
       transform="translate(-166.222,-178.066)"
       id="path22" />
    <path
       class="c"
       d="m 176.656,183.942 c 2.547,4.206 3.8,5.815 2.972,6.128 -0.828,0.313 -1.935,-1.395 -5.67,-5.112 -2.953,-2.937 -4.5,-4.9 -2.56,-5.629 1.94,-0.729 3.41,1.558 5.258,4.613 z"
       transform="translate(-164.213,-178.385)"
       id="path24" />
    <path
       class="c"
       d="m 171.657,186.417 c 3.645,3.78 5.27,5.14 4.7,5.733 -0.57,0.593 -2.1,-0.921 -6.537,-3.808 -3.508,-2.282 -5.5,-3.939 -4.183,-5.318 1.317,-1.379 3.374,0.647 6.02,3.393 z"
       transform="translate(-162.713,-179.342)"
       id="path26" />
    <path
       class="b"
       d="m 168.508,190.65 c 4.385,2.985 6.217,3.962 5.974,4.777 -0.243,0.815 -2.063,-0.358 -6.763,-2.132 -3.717,-1.4 -5.96,-2.592 -5.4,-4.486 0.56,-1.894 3.004,-0.326 6.189,1.841 z"
       transform="translate(-161.866,-180.864)"
       id="path28" />
    <path
       class="d"
       d="m 167.479,196.22 c 4.7,1.9 6.558,2.395 6.662,3.352 0.104,0.957 -1.822,0.241 -6.328,-0.248 -3.564,-0.385 -5.841,-0.99 -6.079,-3.214 -0.238,-2.224 2.336,-1.268 5.745,0.11 z"
       transform="translate(-161.719,-182.795)"
       id="path30" />
    <path
       class="d"
       d="m 168.661,202.539 c 4.548,0.622 6.259,0.594 6.7,1.6 0.441,1.006 -1.4,0.817 -5.273,1.662 -3.059,0.668 -5.148,0.708 -6.17,-1.629 -1.022,-2.337 1.44,-2.086 4.743,-1.633 z"
       transform="translate(-162.274,-184.903)"
       id="path32" />
    <path
       class="d"
       d="m 171.982,208.428 c 3.954,-0.714 5.345,-1.266 6.079,-0.311 0.734,0.955 -0.848,1.312 -3.7,3.409 -2.259,1.657 -3.954,2.337 -5.656,0.116 -1.702,-2.221 0.405,-2.698 3.277,-3.214 z"
       transform="translate(-163.522,-186.422)"
       id="path34" />
    <path
       class="d"
       d="m 177.126,213.5 c 2.973,-1.978 3.909,-3 4.861,-2.188 0.952,0.812 -0.205,1.68 -1.767,4.821 -1.236,2.484 -2.374,3.737 -4.588,1.851 -2.214,-1.886 -0.665,-3.051 1.494,-4.484 z"
       transform="translate(-165.349,-187.389)"
       id="path36" />
    <path
       class="d"
       d="m 183.578,217.684 c 1.7,-3.049 2.09,-4.441 3.17,-3.853 1.08,0.588 0.454,1.883 0.337,5.762 -0.091,3.067 -0.557,4.772 -3.07,3.4 -2.513,-1.372 -1.674,-3.093 -0.437,-5.309 z"
       transform="translate(-167.564,-188.144)"
       id="path38" />
    <path
       class="d"
       d="m 190.625,220.6 c 0.266,-3.822 0.066,-5.449 1.17,-5.141 1.104,0.308 1.069,1.9 2.41,6.14 1.063,3.351 1.312,5.339 -1.254,4.623 -2.566,-0.716 -2.515,-2.849 -2.326,-5.622 z"
       transform="translate(-169.873,-188.631)"
       id="path40" />
    <path
       class="b"
       d="m 196.763,221.953 c -1.2,-4.222 -1.965,-5.923 -0.947,-5.925 1.018,-0.002 1.58,1.733 4.251,5.915 2.11,3.306 3.052,5.384 0.686,5.39 -2.366,0.006 -3.121,-2.315 -3.99,-5.38 z"
       transform="translate(-171.229,-188.803)"
       id="path42" />
    <path
       class="c"
       d="m 202.121,221.612 c -2.545,-4.207 -3.8,-5.816 -2.974,-6.129 0.826,-0.313 1.937,1.4 5.676,5.113 2.95,2.937 4.492,4.9 2.558,5.63 -1.934,0.73 -3.411,-1.559 -5.26,-4.614 z"
       transform="translate(-172.233,-188.639)"
       id="path44" />
    <path
       class="c"
       d="m 206.374,219.617 c -3.645,-3.781 -5.27,-5.141 -4.7,-5.733 0.57,-0.592 2.1,0.922 6.538,3.809 3.508,2.281 5.5,3.939 4.182,5.317 -1.318,1.378 -3.374,-0.649 -6.02,-3.393 z"
       transform="translate(-172.988,-188.16)"
       id="path46" />
    <path
       class="b"
       d="m 209.116,216.16 c -4.383,-2.985 -6.218,-3.962 -5.975,-4.777 0.243,-0.815 2.065,0.358 6.765,2.132 3.716,1.4 5.96,2.592 5.4,4.486 -0.56,1.894 -3.006,0.325 -6.19,-1.841 z"
       transform="translate(-173.429,-187.414)"
       id="path48" />
    <path
       class="d"
       d="m 210.082,211.565 c -4.695,-1.9 -6.559,-2.4 -6.661,-3.352 -0.102,-0.952 1.821,-0.242 6.329,0.247 3.562,0.387 5.839,0.991 6.079,3.214 0.24,2.223 -2.336,1.268 -5.747,-0.109 z"
       transform="translate(-173.513,-186.459)"
       id="path50" />
    <path
       class="d"
       d="m 209.172,205.759 c -4.548,-0.622 -6.259,-0.594 -6.7,-1.6 -0.441,-1.006 1.4,-0.818 5.273,-1.664 3.062,-0.668 5.151,-0.707 6.171,1.628 1.02,2.335 -1.442,2.088 -4.744,1.636 z"
       transform="translate(-173.228,-184.864)"
       id="path52" />
    <path
       class="d"
       d="m 206.479,199.283 c -3.952,0.712 -5.344,1.265 -6.075,0.311 -0.731,-0.954 0.845,-1.314 3.7,-3.41 2.257,-1.657 3.952,-2.337 5.654,-0.117 1.702,2.22 -0.406,2.699 -3.279,3.216 z"
       transform="translate(-172.61,-182.758)"
       id="path54" />
    <path
       class="d"
       d="m 202.268,193.261 c -2.973,1.977 -3.909,3 -4.859,2.189 -0.95,-0.811 0.2,-1.681 1.768,-4.823 1.236,-2.482 2.37,-3.736 4.588,-1.851 2.218,1.885 0.662,3.049 -1.497,4.485 z"
       transform="translate(-171.715,-180.838)"
       id="path56" />
    <path
       class="d"
       d="m 196.919,188.319 c -1.7,3.048 -2.09,4.441 -3.171,3.853 -1.081,-0.588 -0.455,-1.883 -0.339,-5.764 0.093,-3.066 0.559,-4.771 3.072,-3.4 2.513,1.371 1.675,3.092 0.438,5.311 z"
       transform="translate(-170.601,-179.328)"
       id="path58" />
    <path
       class="d"
       d="m 190.095,184.945 c -0.267,3.821 -0.066,5.448 -1.168,5.139 -1.102,-0.309 -1.07,-1.9 -2.413,-6.14 -1.061,-3.35 -1.311,-5.338 1.252,-4.624 2.563,0.714 2.52,2.849 2.329,5.625 z"
       transform="translate(-168.517,-178.38)"
       id="path60" />
  </g>
</svg>
