<svg xmlns="http://www.w3.org/2000/svg" width="183.245" height="38.53" viewBox="0 0 183.245 38.53"><defs><style>.a{fill:#fff;stroke:#fff;stroke-miterlimit:10;stroke-width:0.3px;}.b{fill:#3895ae;}.c{fill:#56bfc6;}.d{fill:#2e7691;}</style></defs><g transform="translate(-161.719 -178.066)"><g transform="translate(212.95 187.14)"><path class="a" d="M233.312,208.125l1.189-1.764a.839.839,0,0,1,1.122-.2c.166.084,2.841,1.764,4.986,1.764,1.717,0,3.006-.967,3.006-2.189,0-1.45-1.421-2.447-4.195-3.416-3.1-1.08-6.208-2.788-6.208-6.144,0-2.532,2.179-5.46,7.429-5.46a12.818,12.818,0,0,1,6.6,1.906.642.642,0,0,1,.2.938l-1.254,1.623a.942.942,0,0,1-1.155.338,11.924,11.924,0,0,0-4.591-1.563c-1.883,0-2.906,1.081-2.906,1.993,0,1.334,1.222,2.245,3.9,3.183,3.2,1.109,6.9,2.76,6.9,6.429,0,2.93-2.939,5.633-7.595,5.633a11.6,11.6,0,0,1-7.266-2.22C233.179,208.725,233.015,208.581,233.312,208.125Z" transform="translate(-233.155 -190.719)"/><path class="a" d="M261.141,191.8a.732.732,0,0,1,.792-.682h2.907a.752.752,0,0,1,.791.682v7.679l8.322-8.077a.828.828,0,0,1,.628-.284h3.3c.63,0,.96.6.531,1.023l-8.62,8.364,9.248,9.528c.331.37.064,1-.594,1h-3.6a.774.774,0,0,1-.6-.2l-8.619-9.158v8.675a.754.754,0,0,1-.791.684h-2.907a.733.733,0,0,1-.792-.684Z" transform="translate(-241.071 -190.831)"/><path class="a" d="M297.715,201.439l-7.528-9.5c-.266-.371,0-.825.526-.825h3.369a.683.683,0,0,1,.529.255l5.283,6.543,5.283-6.543a.689.689,0,0,1,.531-.255h3.4c.529,0,.793.454.529.825l-7.628,9.47v9.074a.612.612,0,0,1-.628.543h-3.036a.589.589,0,0,1-.628-.543Z" transform="translate(-249.256 -190.831)"/><path class="a" d="M321.431,191.145a.534.534,0,0,1,.592-.426h.53a.622.622,0,0,1,.562.285l7.266,13.425h.1L337.742,191a.583.583,0,0,1,.561-.285h.53a.534.534,0,0,1,.593.426l3.9,19.115c.1.4-.166.655-.6.655h-3a.708.708,0,0,1-.628-.427l-1.948-10.781h-.1l-5.781,11.179a.569.569,0,0,1-.56.313h-.594a.61.61,0,0,1-.563-.313l-5.843-11.179h-.1l-1.915,10.781a.621.621,0,0,1-.6.427h-2.969c-.43,0-.695-.258-.628-.655Z" transform="translate(-257.008 -190.719)"/><path class="a" d="M360.566,191.657a.609.609,0,0,1,.626-.541h3.072a.609.609,0,0,1,.628.541v18.828a.612.612,0,0,1-.628.543h-3.072a.611.611,0,0,1-.626-.543Z" transform="translate(-269.192 -190.831)"/><path class="a" d="M373.625,191.657a.586.586,0,0,1,.627-.541h3.038a.61.61,0,0,1,.628.541v15.955h8.421a.59.59,0,0,1,.628.543v2.33a.591.591,0,0,1-.628.543H374.252a.588.588,0,0,1-.627-.543Z" transform="translate(-272.885 -190.831)"/><path class="a" d="M398.422,191.657a.586.586,0,0,1,.627-.541h3.039a.609.609,0,0,1,.627.541v15.955h8.421a.589.589,0,0,1,.628.543v2.33a.589.589,0,0,1-.628.543H399.049a.588.588,0,0,1-.627-.543Z" transform="translate(-279.899 -190.831)"/></g><g transform="translate(161.719 178.066)"><path class="b" d="M183.017,183.447c1.2,4.221,1.967,5.922.949,5.924s-1.578-1.733-4.249-5.914c-2.111-3.306-3.054-5.384-.687-5.391S182.149,180.382,183.017,183.447Z" transform="translate(-166.222 -178.066)"/><path class="c" d="M176.656,183.942c2.547,4.206,3.8,5.815,2.972,6.128s-1.935-1.395-5.67-5.112c-2.953-2.937-4.5-4.9-2.56-5.629S174.808,180.887,176.656,183.942Z" transform="translate(-164.213 -178.385)"/><path class="c" d="M171.657,186.417c3.645,3.78,5.27,5.14,4.7,5.733s-2.1-.921-6.537-3.808c-3.508-2.282-5.5-3.939-4.183-5.318S169.011,183.671,171.657,186.417Z" transform="translate(-162.713 -179.342)"/><path class="b" d="M168.508,190.65c4.385,2.985,6.217,3.962,5.974,4.777s-2.063-.358-6.763-2.132c-3.717-1.4-5.96-2.592-5.4-4.486S165.323,188.483,168.508,190.65Z" transform="translate(-161.866 -180.864)"/><path class="d" d="M167.479,196.22c4.7,1.9,6.558,2.395,6.662,3.352s-1.822.241-6.328-.248c-3.564-.385-5.841-.99-6.079-3.214S164.07,194.842,167.479,196.22Z" transform="translate(-161.719 -182.795)"/><path class="d" d="M168.661,202.539c4.548.622,6.259.594,6.7,1.6s-1.4.817-5.273,1.662c-3.059.668-5.148.708-6.17-1.629S165.358,202.086,168.661,202.539Z" transform="translate(-162.274 -184.903)"/><path class="d" d="M171.982,208.428c3.954-.714,5.345-1.266,6.079-.311s-.848,1.312-3.7,3.409c-2.259,1.657-3.954,2.337-5.656.116S169.11,208.944,171.982,208.428Z" transform="translate(-163.522 -186.422)"/><path class="d" d="M177.126,213.5c2.973-1.978,3.909-3,4.861-2.188s-.205,1.68-1.767,4.821c-1.236,2.484-2.374,3.737-4.588,1.851S174.967,214.933,177.126,213.5Z" transform="translate(-165.349 -187.389)"/><path class="d" d="M183.578,217.684c1.7-3.049,2.09-4.441,3.17-3.853s.454,1.883.337,5.762c-.091,3.067-.557,4.772-3.07,3.4S182.341,219.9,183.578,217.684Z" transform="translate(-167.564 -188.144)"/><path class="d" d="M190.625,220.6c.266-3.822.066-5.449,1.17-5.141s1.069,1.9,2.41,6.14c1.063,3.351,1.312,5.339-1.254,4.623S190.436,223.373,190.625,220.6Z" transform="translate(-169.873 -188.631)"/><path class="b" d="M196.763,221.953c-1.2-4.222-1.965-5.923-.947-5.925s1.58,1.733,4.251,5.915c2.11,3.306,3.052,5.384.686,5.39S197.632,225.018,196.763,221.953Z" transform="translate(-171.229 -188.803)"/><path class="c" d="M202.121,221.612c-2.545-4.207-3.8-5.816-2.974-6.129s1.937,1.4,5.676,5.113c2.95,2.937,4.492,4.9,2.558,5.63S203.97,224.667,202.121,221.612Z" transform="translate(-172.233 -188.639)"/><path class="c" d="M206.374,219.617c-3.645-3.781-5.27-5.141-4.7-5.733s2.1.922,6.538,3.809c3.508,2.281,5.5,3.939,4.182,5.317S209.02,222.361,206.374,219.617Z" transform="translate(-172.988 -188.16)"/><path class="b" d="M209.116,216.16c-4.383-2.985-6.218-3.962-5.975-4.777s2.065.358,6.765,2.132c3.716,1.4,5.96,2.592,5.4,4.486S212.3,218.326,209.116,216.16Z" transform="translate(-173.429 -187.414)"/><path class="d" d="M210.082,211.565c-4.695-1.9-6.559-2.4-6.661-3.352s1.821-.242,6.329.247c3.562.387,5.839.991,6.079,3.214S213.493,212.942,210.082,211.565Z" transform="translate(-173.513 -186.459)"/><path class="d" d="M209.172,205.759c-4.548-.622-6.259-.594-6.7-1.6s1.4-.818,5.273-1.664c3.062-.668,5.151-.707,6.171,1.628S212.474,206.211,209.172,205.759Z" transform="translate(-173.228 -184.864)"/><path class="d" d="M206.479,199.283c-3.952.712-5.344,1.265-6.075.311s.845-1.314,3.7-3.41c2.257-1.657,3.952-2.337,5.654-.117S209.352,198.766,206.479,199.283Z" transform="translate(-172.61 -182.758)"/><path class="d" d="M202.268,193.261c-2.973,1.977-3.909,3-4.859,2.189s.2-1.681,1.768-4.823c1.236-2.482,2.37-3.736,4.588-1.851S204.427,191.825,202.268,193.261Z" transform="translate(-171.715 -180.838)"/><path class="d" d="M196.919,188.319c-1.7,3.048-2.09,4.441-3.171,3.853s-.455-1.883-.339-5.764c.093-3.066.559-4.771,3.072-3.4S198.156,186.1,196.919,188.319Z" transform="translate(-170.601 -179.328)"/><path class="d" d="M190.095,184.945c-.267,3.821-.066,5.448-1.168,5.139s-1.07-1.9-2.413-6.14c-1.061-3.35-1.311-5.338,1.252-4.624S190.286,182.169,190.095,184.945Z" transform="translate(-168.517 -178.38)"/></g></g></svg>