<?xml version="1.0" encoding="UTF-8"?>
<svg id="Layer_1" data-name="Layer 1" xmlns="http://www.w3.org/2000/svg" viewBox="0 0 274.03 87.8">
  <defs>
    <style>
      .cls-1 {
        fill: #512383;
        stroke-width: 0px;
      }
    </style>
  </defs>
  <path class="cls-1" d="M98.83,85.73c-.44-.44-.66-.98-.66-1.64V26.1c0-.65.22-1.2.66-1.64.44-.44.98-.65,1.64-.65h8.52c.66,0,1.2.22,1.64.65.44.44.66.98.66,1.64v5.68c2.11-3.13,4.6-5.48,7.48-7.04,2.87-1.56,5.91-2.35,9.12-2.35,4,0,7.55.95,10.65,2.84,3.09,1.89,5.55,4.59,7.37,8.08,2.04-3.42,4.77-6.1,8.19-8.03,3.42-1.93,7.1-2.89,11.03-2.89,6.33,0,11.36,2.09,15.07,6.28,3.71,4.19,5.57,9.74,5.57,16.65v38.77c0,.66-.22,1.2-.66,1.64-.44.44-.98.66-1.64.66h-8.52c-.65,0-1.2-.22-1.64-.66-.44-.44-.65-.98-.65-1.64v-37.13c0-3.86-.87-6.82-2.62-8.9-1.75-2.07-4.26-3.11-7.53-3.11-4.3,0-7.7,1.4-10.21,4.2-2.51,2.8-3.77,6.64-3.77,11.52v33.42c0,.66-.22,1.2-.66,1.64-.44.44-.98.66-1.64.66h-8.52c-.66,0-1.2-.22-1.64-.66-.44-.44-.66-.98-.66-1.64v-37.13c0-3.86-.87-6.82-2.62-8.9-1.75-2.07-4.26-3.11-7.54-3.11-4.3,0-7.7,1.4-10.21,4.2-2.51,2.8-3.77,6.64-3.77,11.52v33.42c0,.66-.22,1.2-.66,1.64-.44.44-.98.66-1.64.66h-8.52c-.66,0-1.2-.22-1.64-.66"/>
  <path class="cls-1" d="M235.28,35.16c.84-2.04,1.26-4,1.26-5.9,0-3.13-1.09-5.68-3.28-7.64-2.18-1.97-4.91-2.95-8.19-2.95s-6.01.95-8.19,2.84c-2.18,1.89-3.28,4.3-3.28,7.21,0,3.35,1.53,5.84,4.59,7.48,3.06,1.64,7.64,3.11,13.76,4.42,1.38-1.6,2.49-3.42,3.33-5.46M235.77,72.19c2.91-2.55,4.37-5.68,4.37-9.39,0-2.55-.78-4.57-2.35-6.06-1.57-1.49-3.6-2.66-6.11-3.49-2.51-.84-6.24-1.8-11.19-2.89l-3.93-.87c-2.04,1.38-3.66,3.26-4.86,5.62-1.2,2.37-1.8,4.86-1.8,7.48,0,3.86,1.42,7.06,4.26,9.61,2.84,2.55,6.44,3.82,10.81,3.82s7.9-1.27,10.81-3.82M210.6,84.53c-4.33-2.18-7.74-5.19-10.21-9.01-2.48-3.82-3.71-8.03-3.71-12.61,0-3.71.84-7.26,2.51-10.65,1.67-3.39,4.04-6.35,7.1-8.9-1.89-1.82-3.35-4-4.37-6.55-1.02-2.55-1.53-5.2-1.53-7.97,0-4.08,1.09-7.81,3.28-11.19,2.18-3.38,5.15-6.04,8.9-7.97,3.75-1.93,7.88-2.89,12.39-2.89s8.64.97,12.4,2.89c3.75,1.93,6.73,4.57,8.95,7.92,2.22,3.35,3.33,7.03,3.33,11.03,0,5.53-2.22,11.03-6.66,16.49,3.35,2.11,5.91,4.75,7.7,7.92,1.78,3.17,2.68,6.61,2.68,10.32,0,4.51-1.26,8.63-3.77,12.34-2.51,3.71-5.95,6.66-10.32,8.85-4.37,2.18-9.14,3.28-14.31,3.28s-10.03-1.09-14.36-3.28"/>
  <path class="cls-1" d="M12.72,84.8c-1.06-1.05-1.58-2.35-1.58-3.88v-44.67H2.29c-.66,0-1.2-.22-1.64-.65-.44-.44-.66-.98-.66-1.64v-7.86c0-.65.22-1.2.66-1.64.44-.44.98-.65,1.64-.65h16.49c1.53,0,2.82.53,3.88,1.58,1.05,1.06,1.58,2.35,1.58,3.88v44.66h8.85c.66,0,1.2.22,1.64.66.44.44.66.98.66,1.64v7.86c0,.66-.22,1.2-.66,1.64-.44.44-.98.66-1.64.66h-16.49c-1.53,0-2.82-.53-3.88-1.58"/>
  <path class="cls-1" d="M55.64,81.14c-3.53-3.49-5.3-8.08-5.3-13.76v-31.34h-7.54c-.66,0-1.2-.22-1.64-.65-.44-.44-.66-.98-.66-1.64v-7.64c0-.66.22-1.2.66-1.64.44-.44.98-.66,1.64-.66h39.1c.66,0,1.2.22,1.64.66.44.44.66.98.66,1.64v7.75c0,.66-.22,1.2-.66,1.64-.44.44-.98.66-1.64.66h-18.46v30.69c0,2.18.64,3.93,1.91,5.24,1.27,1.31,2.97,1.97,5.08,1.97l11.47.11c.66,0,1.2.22,1.64.65.44.44.66.98.66,1.64v7.64c0,.66-.22,1.2-.66,1.64-.44.44-.98.66-1.64.66h-12.45c-5.68,0-10.28-1.75-13.82-5.24"/>
  <path class="cls-1" d="M23.7,2.29c0-.66-.22-1.2-.66-1.64-.44-.44-.98-.66-1.64-.66h-7.43c-.66,0-1.2.22-1.64.66-.44.44-.66.98-.66,1.64v11.9c0,.66.22,1.2.66,1.64.44.44.98.66,1.64.66h7.43c.66,0,1.2-.22,1.64-.66.44-.44.66-.98.66-1.64V2.29Z"/>
  <path class="cls-1" d="M62.36,14.2c0,.66-.22,1.2-.66,1.64-.44.44-.98.66-1.64.66h-7.43c-.66,0-1.2-.22-1.64-.66-.44-.44-.66-.98-.66-1.64V2.29c0-.66.22-1.2.66-1.64.44-.44.98-.66,1.64-.66h7.43c.66,0,1.2.22,1.64.66.44.44.66.98.66,1.64v11.9Z"/>
  <path class="cls-1" d="M261.92,21.82c-1.23-.73-2.21-1.7-2.94-2.94-.73-1.23-1.09-2.58-1.09-4.04s.36-2.81,1.09-4.04c.73-1.23,1.7-2.21,2.94-2.94,1.23-.73,2.58-1.09,4.04-1.09s2.81.36,4.04,1.09c1.23.73,2.21,1.7,2.94,2.94.73,1.23,1.09,2.58,1.09,4.04s-.36,2.81-1.09,4.04c-.73,1.23-1.7,2.21-2.94,2.94-1.23.73-2.58,1.09-4.04,1.09s-2.81-.36-4.04-1.09ZM269.39,20.75c1.05-.61,1.87-1.44,2.49-2.49.61-1.05.92-2.19.92-3.42s-.31-2.38-.92-3.42c-.61-1.04-1.44-1.87-2.49-2.49-1.05-.61-2.19-.92-3.42-.92s-2.38.31-3.42.92c-1.05.61-1.87,1.44-2.49,2.49-.61,1.05-.92,2.19-.92,3.42s.31,2.38.92,3.42c.61,1.05,1.44,1.87,2.49,2.49,1.04.61,2.19.92,3.42.92s2.38-.31,3.42-.92ZM263.54,19.26s-.07-.1-.07-.17v-8.23c0-.13.05-.25.15-.35s.22-.15.35-.15h2.22c.48,0,.92.12,1.32.35.4.23.72.55.95.96.23.41.35.84.35,1.31,0,.63-.19,1.17-.57,1.65-.38.47-.86.78-1.45.91l2.1,3.35s.04.07.04.14c0,.08-.03.15-.08.21-.05.06-.12.09-.2.09h-.64c-.11,0-.19-.05-.26-.16l-2.22-3.57h-.92v3.49c0,.05-.02.11-.07.16-.05.05-.1.08-.15.08h-.68c-.07,0-.12-.02-.17-.07ZM266.11,14.54c.45,0,.83-.15,1.12-.44s.44-.66.44-1.1-.15-.83-.44-1.12c-.29-.29-.67-.44-1.12-.44h-1.5v3.1h1.5Z"/>
</svg>