<?xml version="1.0" standalone="no"?>
<!DOCTYPE svg PUBLIC "-//W3C//DTD SVG 20010904//EN"
 "http://www.w3.org/TR/2001/REC-SVG-20010904/DTD/svg10.dtd">
<svg version="1.0" xmlns="http://www.w3.org/2000/svg"
 width="700.000000pt" height="700.000000pt" viewBox="0 0 700.000000 700.000000"
 preserveAspectRatio="xMidYMid meet">
<metadata>
Created by potrace 1.14, written by Peter Selinger 2001-2017
</metadata>
<g transform="translate(0.000000,700.000000) scale(0.100000,-0.100000)"
fill="#000000" stroke="none">
<path d="M2045 6686 c-91 -28 -127 -80 -120 -175 10 -140 92 -305 369 -749 94
-152 175 -284 179 -292 4 -8 13 -24 20 -35 7 -11 57 -94 111 -185 145 -242
184 -299 242 -357 74 -74 157 -85 187 -25 29 56 7 166 -118 587 -47 160 -92
313 -99 340 -174 605 -278 788 -497 876 -65 26 -212 34 -274 15z"/>
<path d="M1246 6549 c-108 -33 -166 -94 -166 -174 0 -83 70 -214 198 -370 83
-101 136 -158 403 -430 119 -121 263 -269 320 -330 200 -211 414 -423 454
-448 52 -31 94 -41 129 -28 73 28 44 130 -107 381 -38 63 -79 131 -91 151 -43
73 -342 558 -424 689 -297 470 -497 627 -716 559z"/>
<path d="M2995 6555 c-80 -28 -114 -103 -109 -239 1 -37 7 -90 14 -119 6 -28
13 -68 16 -87 3 -19 33 -125 66 -235 72 -242 177 -607 188 -655 11 -49 65
-227 83 -275 36 -95 76 -147 134 -171 74 -32 123 -10 146 64 28 88 33 134 53
497 3 61 7 133 9 160 22 311 22 584 1 646 -3 7 -7 25 -10 39 -13 80 -84 199
-149 253 -120 98 -340 159 -442 122z"/>
<path d="M650 6163 c-65 -10 -137 -65 -174 -133 -59 -108 -15 -226 139 -375
129 -125 220 -194 570 -427 148 -100 403 -272 565 -383 323 -222 404 -271 467
-281 36 -6 45 -3 68 20 22 22 26 33 21 59 -9 44 -81 147 -173 246 -208 224
-972 997 -1039 1051 -30 25 -63 52 -72 60 -26 25 -133 95 -177 118 -60 30
-152 52 -195 45z"/>
<path d="M3965 6138 c-36 -24 -52 -45 -79 -102 -19 -39 -37 -89 -42 -111 -4
-22 -8 -44 -9 -50 -2 -11 -13 -97 -20 -160 -2 -22 -7 -98 -9 -170 -6 -137 -15
-293 -21 -360 -2 -22 -7 -80 -11 -130 -4 -49 -8 -106 -10 -125 -11 -131 -3
-232 22 -282 15 -29 63 -68 104 -84 22 -9 34 -10 84 -5 16 1 86 73 118 121 25
37 70 116 138 245 24 44 68 125 98 180 94 171 179 339 204 401 77 189 59 347
-53 461 -101 104 -284 195 -401 199 -60 2 -72 -1 -113 -28z"/>
<path d="M4947 5525 c-54 -15 -130 -69 -179 -129 -66 -80 -98 -135 -240 -406
-31 -58 -85 -156 -122 -218 -36 -62 -66 -117 -66 -122 0 -4 -4 -10 -8 -12 -24
-10 -107 -205 -105 -245 0 -7 1 -22 2 -33 2 -28 55 -85 98 -105 84 -40 169
-10 376 129 635 427 720 494 778 612 27 53 31 72 27 117 -6 76 -42 141 -122
223 -153 155 -313 224 -439 189z"/>
<path d="M234 5522 c-40 -6 -101 -69 -118 -120 -70 -217 48 -376 421 -561 127
-63 210 -98 678 -281 88 -34 178 -70 200 -80 44 -19 220 -92 355 -147 203 -82
301 -101 332 -65 25 29 27 47 8 88 -39 87 -132 158 -785 596 -495 332 -671
442 -797 501 -121 57 -224 81 -294 69z"/>
<path d="M5670 4715 c-122 -34 -212 -85 -470 -265 -91 -63 -241 -164 -335
-225 -183 -117 -265 -188 -265 -230 0 -64 69 -136 150 -155 59 -14 170 -9 295
14 44 9 93 18 109 20 16 3 52 10 80 15 28 6 62 13 76 15 14 3 59 12 100 20 41
8 89 17 105 20 473 85 627 132 712 216 95 94 48 246 -133 428 -97 97 -175 135
-289 139 -50 2 -101 -3 -135 -12z"/>
<path d="M153 4710 c-101 -23 -136 -108 -108 -258 50 -260 286 -393 830 -466
41 -6 63 -8 270 -32 28 -3 61 -7 75 -9 14 -2 50 -7 80 -10 30 -4 64 -9 74 -11
11 -2 54 -8 95 -14 42 -6 87 -12 101 -15 14 -2 41 -6 60 -9 34 -4 160 -22 229
-32 52 -7 153 -7 183 1 16 4 31 18 38 34 30 72 -37 145 -212 230 -205 100
-1207 493 -1413 554 -123 36 -241 51 -302 37z"/>
<path d="M6055 3839 c-27 -5 -69 -11 -91 -13 -23 -3 -77 -13 -120 -22 -44 -9
-88 -18 -99 -20 -11 -2 -67 -13 -124 -25 -57 -11 -116 -23 -130 -25 -14 -3
-62 -11 -106 -19 -44 -8 -96 -17 -115 -19 -19 -3 -75 -12 -125 -21 -49 -9
-103 -18 -118 -21 -44 -7 -127 -41 -148 -60 -11 -9 -19 -29 -19 -43 0 -28 32
-87 59 -109 59 -48 222 -93 430 -117 30 -4 62 -8 72 -10 10 -2 42 -6 71 -9 29
-4 67 -8 83 -10 17 -2 53 -7 80 -10 58 -8 68 -9 235 -31 69 -9 136 -18 150
-20 14 -2 52 -7 85 -11 33 -3 68 -8 78 -10 10 -2 62 -6 115 -10 254 -20 383 0
447 67 100 104 -46 415 -242 513 -84 43 -158 58 -293 61 -69 1 -147 -2 -175
-6z"/>
<path d="M403 3815 c-95 -30 -134 -73 -134 -147 0 -52 3 -67 30 -138 69 -185
210 -303 401 -340 53 -11 230 -14 280 -6 14 2 48 7 75 10 63 8 71 9 305 56
209 42 336 65 440 81 164 24 307 56 348 76 20 10 43 30 51 44 29 52 -30 135
-122 174 -43 18 -136 43 -187 51 -19 3 -60 9 -90 14 -30 5 -73 11 -95 14 -129
16 -177 23 -242 31 -21 2 -56 7 -78 10 -22 2 -56 7 -75 9 -105 13 -289 37
-318 41 -18 3 -53 7 -76 10 -24 3 -63 8 -87 11 -102 13 -384 12 -426 -1z"/>
<path d="M2178 3194 c-2 -1 -34 -5 -73 -9 -38 -4 -72 -8 -75 -10 -3 -2 -23 -6
-45 -9 -22 -3 -74 -13 -115 -21 -41 -8 -86 -17 -100 -20 -14 -3 -47 -9 -75
-15 -68 -14 -90 -18 -160 -30 -33 -6 -91 -17 -130 -25 -38 -8 -86 -17 -105
-20 -71 -12 -247 -56 -300 -76 -81 -30 -153 -76 -180 -117 -35 -50 -34 -137 2
-208 34 -64 97 -146 162 -207 166 -157 344 -171 583 -46 43 23 143 87 223 142
164 115 293 201 461 310 221 142 253 193 181 283 -39 50 -97 75 -181 78 -39 1
-72 2 -73 0z"/>
<path d="M5018 3168 c-56 -20 -49 -99 14 -158 68 -63 209 -129 703 -325 684
-272 774 -306 905 -340 95 -24 113 -27 195 -31 68 -3 86 0 120 19 l40 23 3
155 2 156 -41 62 c-46 69 -113 124 -204 169 -82 41 -281 100 -395 117 -19 3
-46 7 -60 10 -14 2 -45 7 -70 10 -25 4 -56 8 -70 10 -24 4 -52 7 -180 21 -30
3 -65 7 -76 9 -12 2 -48 6 -80 10 -33 3 -81 10 -109 15 -27 5 -74 12 -104 15
-30 4 -61 8 -70 10 -9 1 -41 6 -71 10 -30 4 -64 9 -75 11 -11 2 -41 6 -66 9
-25 3 -56 8 -70 11 -47 10 -214 12 -241 2z"/>
<path d="M2577 2766 c-68 -28 -152 -79 -302 -183 -60 -42 -166 -114 -235 -161
-360 -246 -445 -324 -474 -441 -13 -51 -13 -51 -3 -103 23 -113 171 -264 349
-355 71 -37 191 -40 253 -6 116 62 193 169 373 513 38 74 115 214 171 309 55
96 108 197 117 224 23 68 14 121 -27 163 -66 68 -126 79 -222 40z"/>
<path d="M4961 2755 c-33 -43 -12 -102 61 -171 87 -83 191 -156 918 -641 418
-279 551 -357 695 -410 64 -23 76 -25 146 -27 55 -1 72 3 102 24 51 35 79 98
85 191 4 68 2 81 -24 134 -53 108 -175 209 -375 312 -155 79 -194 96 -559 238
-146 57 -348 138 -450 180 -488 203 -557 222 -599 170z"/>
<path d="M3064 2448 c-47 -33 -103 -116 -190 -277 -43 -80 -126 -234 -184
-342 -209 -384 -244 -520 -171 -672 87 -183 407 -345 558 -282 123 52 170 222
188 690 5 118 12 240 20 320 16 172 20 235 20 325 0 63 -5 120 -13 143 -35 97
-155 147 -228 95z"/>
<path d="M4779 2444 c-17 -18 -21 -31 -16 -59 6 -39 47 -108 98 -165 17 -19
47 -53 66 -75 39 -45 534 -554 783 -805 357 -360 531 -480 687 -475 118 4 226
120 218 234 -5 58 -20 94 -71 167 -91 130 -287 286 -724 576 -146 96 -369 247
-495 335 -347 239 -421 283 -492 288 -23 1 -39 -5 -54 -21z"/>
<path d="M3573 2255 c-28 -20 -49 -75 -62 -165 -12 -83 -20 -205 -36 -512 -4
-62 -8 -135 -10 -163 -3 -27 -6 -126 -9 -220 -5 -192 6 -300 40 -403 55 -164
186 -270 394 -318 195 -44 292 23 292 200 -1 126 -35 285 -126 576 -40 131
-84 283 -193 675 -59 214 -102 292 -177 326 -50 23 -85 24 -113 4z"/>
<path d="M4490 2261 c-38 -10 -53 -51 -39 -103 24 -91 60 -155 371 -662 387
-630 455 -731 578 -856 130 -132 209 -174 330 -175 65 0 84 4 142 33 160 79
152 214 -28 452 -40 52 -80 104 -91 115 -10 11 -38 43 -62 70 -24 28 -157 165
-295 306 -138 140 -314 322 -391 403 -359 380 -433 439 -515 417z"/>
<path d="M4062 2190 c-36 -15 -46 -54 -34 -140 15 -105 17 -116 69 -290 68
-234 116 -398 168 -575 62 -216 120 -383 165 -480 127 -274 278 -385 510 -373
234 12 264 151 102 475 -62 125 -98 186 -311 528 -132 212 -102 163 -252 415
-117 197 -198 322 -236 365 -56 64 -131 95 -181 75z"/>
</g>
</svg>
